<svg id="Layer_1" data-name="Layer 1" xmlns="http://www.w3.org/2000/svg" xmlns:xlink="http://www.w3.org/1999/xlink" viewBox="0 0 416.36 344.04"><defs><style>.cls-1{fill:none;}.cls-2{clip-path:url(#clip-path);}.cls-3{fill:#7f3f97;stroke:#7f3f97;}.cls-3,.cls-4,.cls-5{stroke-miterlimit:10;}.cls-4{fill:#0e8db0;stroke:#0e8db0;}.cls-5{fill:orange;stroke:orange;}</style><clipPath id="clip-path" transform="translate(-545.85 170.17)"><rect class="cls-1" x="608" y="-90" width="229" height="138"/></clipPath></defs><g class="cls-2"><path class="cls-3" d="M836.19-80.48c-69.32,0-125.52,56.82-125.52,126.91s56.2,126.91,125.52,126.91S961.71,116.52,961.71,46.43h0c0-70.09-56.19-126.9-125.51-126.9Zm0,248.05c-66.18,0-119.83-54.23-119.83-121.14S770-74.73,836.17-74.73,956-20.5,956,46.41h0c0,66.9-53.63,121.14-119.8,121.15Z" transform="translate(-545.85 170.17)"/><path class="cls-4" d="M749.47-169.67c-62.84,0-113.78,51.5-113.78,115S686.63,60.42,749.47,60.42s113.79-51.51,113.79-115h0c0-63.53-50.93-115-113.77-115Zm0,224.86c-60,0-108.61-49.17-108.61-109.82s48.63-109.82,108.61-109.82S858.09-115.28,858.09-54.63h0C858.08,6,809.46,55.19,749.47,55.19Z" transform="translate(-545.85 170.17)"/><path class="cls-5" d="M645.6-27.34c-54.81,0-99.25,44.93-99.25,100.35s44.44,100.36,99.25,100.36S744.86,128.44,744.86,73h0c0-55.42-44.43-100.34-99.24-100.34Zm0,196.16c-52.32,0-94.74-42.89-94.74-95.8s42.42-95.79,94.74-95.79S740.35,20.12,740.35,73s-42.42,95.8-94.75,95.8Z" transform="translate(-545.85 170.17)"/></g></svg>