<?xml version="1.0" encoding="UTF-8"?>
<svg xmlns="http://www.w3.org/2000/svg" version="1.1" viewBox="0 0 883.4 153.6" style="width:200px;">
  <defs>
    <style>
      .cls-1 {
        fill: #4dc1ef;
      }

      .cls-2 {
        fill: #002a4d;
      }

      .cls-3 {
        fill: #8bc639;
      }

      .cls-4 {
        fill: #faa018;
      }

      .cls-5 {
        fill: #f16237;
      }
    </style>
  </defs>
  <!-- Generator: Adobe Illustrator 28.6.0, SVG Export Plug-In . SVG Version: 1.2.0 Build 709)  -->
  <g>
    <g id="Layer_1">
      <g>
        <path class="cls-2" d="M254.5,153.6c-9.5,0-18.5-2.5-26.8-7.6-8.3-5.1-14.9-11.9-19.9-20.4-5-8.6-7.5-17.8-7.5-27.6s2.5-19,7.5-27.6,11.6-15.4,19.9-20.4c8.3-5,17.2-7.6,26.8-7.6s16.7,2,23.9,6.1,13.1,9.4,17.6,16c4.6,6.6,7.5,13.4,8.9,20.4h-28.2c-.5-1.9-1.7-4.2-3.5-6.7s-4.3-4.8-7.5-6.7c-3.2-1.9-6.9-2.9-11.2-2.9s-9.2,1.2-13.2,3.7c-3.9,2.5-7.1,6-9.3,10.5-2.3,4.5-3.4,9.6-3.4,15.2s1.1,10.8,3.4,15.2c2.3,4.5,5.4,8,9.3,10.5s8.3,3.7,13.2,3.7,8-1,11.2-2.9c3.2-1.9,5.7-4.2,7.5-6.7s3-4.8,3.5-6.7h28.2c-1.4,7.1-4.4,13.9-8.9,20.4-4.6,6.6-10.5,11.9-17.6,16-7.2,4.1-15.1,6.1-23.9,6.1"/>
        <path class="cls-2" d="M369.3,153.6c-9.5,0-18.5-2.5-26.8-7.6-8.3-5.1-14.9-11.9-19.9-20.4s-7.5-17.8-7.5-27.6,2.5-19,7.5-27.6,11.6-15.4,19.9-20.4c8.3-5,17.2-7.6,26.8-7.6s18.5,2.5,26.8,7.6c8.3,5,14.9,11.9,19.9,20.4s7.5,17.8,7.5,27.6-2.5,19-7.5,27.6-11.6,15.4-19.9,20.4c-8.3,5.1-17.2,7.6-26.8,7.6M369.3,127.4c4.8,0,9.2-1.2,13.2-3.7,3.9-2.5,7-6,9.3-10.5,2.3-4.5,3.4-9.6,3.4-15.2s-1.1-10.8-3.4-15.2c-2.3-4.5-5.4-8-9.3-10.5-3.9-2.5-8.3-3.7-13.2-3.7s-9.2,1.2-13.2,3.7c-3.9,2.5-7,6-9.3,10.5-2.3,4.5-3.4,9.6-3.4,15.2s1.1,10.8,3.4,15.2c2.3,4.5,5.4,8,9.3,10.5s8.3,3.7,13.2,3.7"/>
        <path class="cls-2" d="M583.3,62.9c-3.1-6.8-7.5-11.9-13.2-15.4-5.7-3.5-12.4-5.2-20.1-5.2s-9.9,1-14.4,2.9c-4.5,1.9-8.3,4.3-11.5,7-2,1.7-3.6,3.4-4.8,5-1.1-1.6-2.4-3.2-3.9-4.9-2.5-2.7-5.9-5-10.2-7s-9.3-3-15.1-3-11.4,1.5-15.9,4.5c-4.5,3-7.7,5.8-9.6,8.6h-1l-4.6-10.4h-21.2v105.8h28.2v-62.4c0-4.2.7-7.7,2.2-10.7,1.5-3,3.4-5.3,5.9-6.8s5.3-2.4,8.3-2.4,5.8.8,8.3,2.4,4.5,3.9,5.9,6.8c1.5,3,2.2,6.5,2.2,10.7v62.4h28.2v-62.4c0-4.2.7-7.7,2.2-10.7,1.5-3,3.4-5.3,5.9-6.8s5.2-2.4,8.3-2.4,5.8.8,8.3,2.4,4.5,3.9,5.9,6.8c1.5,3,2.2,6.5,2.2,10.7v62.4h28.2v-63.5c0-9.5-1.6-17.7-4.7-24.5h0Z"/>
        <path class="cls-2" d="M752.4,62.9c-3.1-6.8-7.5-11.9-13.2-15.4-5.7-3.5-12.4-5.2-20.1-5.2s-9.9,1-14.4,2.9c-4.5,1.9-8.3,4.3-11.5,7-2,1.7-3.6,3.4-4.8,5-1.1-1.6-2.4-3.2-3.9-4.9-2.5-2.7-5.9-5-10.2-7s-9.3-3-15.2-3-11.4,1.5-15.9,4.5c-4.5,3-7.7,5.8-9.7,8.6h-1l-4.6-10.4h-21.2v105.8h28.2v-62.4c0-4.2.7-7.7,2.2-10.7,1.5-3,3.4-5.3,5.9-6.8s5.3-2.4,8.3-2.4,5.8.8,8.3,2.4,4.5,3.9,5.9,6.8c1.5,3,2.2,6.5,2.2,10.7v62.4h28.2v-62.4c0-4.2.7-7.7,2.2-10.7,1.5-3,3.4-5.3,5.9-6.8s5.2-2.4,8.3-2.4,5.8.8,8.3,2.4,4.5,3.9,5.9,6.8c1.5,3,2.2,6.5,2.2,10.7v62.4h28.2v-63.5c0-9.5-1.6-17.7-4.7-24.5h0Z"/>
        <path class="cls-2" d="M789.5,31.6c-4.4,0-8.2-1.5-11.2-4.6-3-3-4.6-6.8-4.6-11.2s.7-5.6,2.1-8c1.4-2.4,3.3-4.3,5.7-5.7,2.4-1.4,5.1-2.1,8-2.1,4.4,0,8.2,1.5,11.2,4.6,3,3,4.6,6.8,4.6,11.2s-.7,5.6-2.1,8c-1.4,2.4-3.3,4.3-5.7,5.7-2.4,1.4-5.1,2.1-8,2.1M775.3,45.1h28.2v105.8h-28.2V45.1Z"/>
        <path class="cls-2" d="M869.1,153.6c-6.9,0-13.1-1.6-18.5-4.7-5.4-3.1-9.6-7.6-12.7-13.4s-4.6-12.7-4.6-20.5v-44.8h-16.4v-23h7.3c4,0,7.1-1.1,9.3-3.2,2.2-2.1,3.3-5.2,3.3-9.2v-16.2h24.7v26.6h21.8v25.1h-21.8v41.9c0,5,1.3,8.7,3.8,11.2s6.1,3.7,10.7,3.7,5.3-.5,7.3-1.4v25.7c-1.8.7-3.9,1.2-6.3,1.7-2.4.4-5.1.6-8,.6"/>
      </g>
      <g>
        <path class="cls-5" d="M18.7,73.7h0c10.3,0,18.7,8.4,18.7,18.7v42.4c0,10.3-8.4,18.7-18.7,18.7h0c-10.3,0-18.7-8.4-18.7-18.7v-42.4c0-10.3,8.4-18.7,18.7-18.7Z"/>
        <path class="cls-1" d="M63.6,55.2h0c10.3,0,18.7,8.4,18.7,18.7v61c0,10.3-8.4,18.7-18.7,18.7h0c-10.3,0-18.7-8.4-18.7-18.7v-61c0-10.3,8.4-18.7,18.7-18.7Z"/>
        <path class="cls-4" d="M108.3,61.6h0c10.3,0,18.7,8.4,18.7,18.7v54.6c0,10.3-8.4,18.7-18.7,18.7h0c-10.3,0-18.7-8.4-18.7-18.7v-54.6c0-10.3,8.4-18.7,18.7-18.7Z"/>
        <path class="cls-3" d="M153.2,41.2h0c10.3,0,18.7,8.4,18.7,18.7v74.9c0,10.3-8.4,18.7-18.7,18.7h0c-10.3,0-18.7-8.4-18.7-18.7V59.9c0-10.3,8.4-18.7,18.7-18.7Z"/>
        <circle class="cls-5" cx="18.6" cy="50.8" r="18.3"/>
        <circle class="cls-1" cx="63.6" cy="32.2" r="18.3"/>
        <circle class="cls-4" cx="108.3" cy="38.6" r="18.3"/>
        <circle class="cls-3" cx="153.3" cy="18.3" r="18.3"/>
      </g>
    </g>
  </g>
</svg>